<svg width="24" height="24" viewBox="0 0 24 24" fill="none" xmlns="http://www.w3.org/2000/svg">
<path d="M2.58 8.67C3.1961 6.92819 4.28301 5.39127 5.72 4.23M2 12C2 13.17 2.21 14.29 2.58 15.33M9.09 21.57C10.01 21.85 10.99 22 12 22C17.52 22 22 17.52 22 12C22 11.4 21.94 10.81 21.84 10.24M5.72 19.75C5.25 19.37 4.8 18.95 4.4 18.49M20.24 6.34C19.3228 5.00129 18.093 3.90639 16.6572 3.15014C15.2213 2.3939 13.6228 1.99912 12 2C10.99 2 10.01 2.15 9.09 2.43M8.59 17.11C9.01169 17.11 9.41612 16.9425 9.7143 16.6443C10.0125 16.3461 10.18 15.9417 10.18 15.52C10.18 15.0983 10.0125 14.6939 9.7143 14.3957C9.41612 14.0975 9.01169 13.93 8.59 13.93C8.16831 13.93 7.76388 14.0975 7.4657 14.3957C7.16752 14.6939 7 15.0983 7 15.52C7 15.9417 7.16752 16.3461 7.4657 16.6443C7.76388 16.9425 8.16831 17.11 8.59 17.11Z" stroke="#33E1ED" stroke-width="1.5" stroke-linecap="round" stroke-linejoin="round"/>
<path d="M16 14.46V8.25001C16 6.93 15.17 6.74 14.33 6.97L11.15 7.84001C10.57 8.00001 10.17 8.45 10.17 9.12V15.52" stroke="#33E1ED" stroke-width="1.5" stroke-linecap="round" stroke-linejoin="round"/>
<path d="M10.18 10.76L16 9.17001M14.41 16.05C14.8317 16.05 15.2361 15.8825 15.5343 15.5843C15.8325 15.2861 16 14.8817 16 14.46C16 14.0383 15.8325 13.6339 15.5343 13.3357C15.2361 13.0375 14.8317 12.87 14.41 12.87C13.9883 12.87 13.5839 13.0375 13.2857 13.3357C12.9875 13.6339 12.82 14.0383 12.82 14.46C12.82 14.8817 12.9875 15.2861 13.2857 15.5843C13.5839 15.8825 13.9883 16.05 14.41 16.05Z" stroke="#33E1ED" stroke-width="1.5" stroke-linecap="round" stroke-linejoin="round"/>
</svg>
