<svg width="26" height="24" viewBox="0 0 26 24" fill="none" xmlns="http://www.w3.org/2000/svg">
<path d="M11.62 19.11V4.89C11.62 3.54 11.0374 3 9.56535 3H5.85469C4.38269 3 3.80002 3.54 3.80002 4.89V19.11C3.80002 20.46 4.38269 21 5.85469 21H9.56535C11.0374 21 11.62 20.46 11.62 19.11ZM22.2 19.11V4.89C22.2 3.54 21.6174 3 20.1454 3H16.4347C14.9729 3 14.38 3.54 14.38 4.89V19.11C14.38 20.46 14.9627 21 16.4347 21H20.1454C21.6174 21 22.2 20.46 22.2 19.11Z" stroke="white" stroke-width="1.5" stroke-linecap="round" stroke-linejoin="round"/>
</svg>
