<svg width="81" height="82" viewBox="0 0 81 82" fill="none" xmlns="http://www.w3.org/2000/svg">
<rect width="81" height="82" rx="10" fill="#1E1E1E"/>
<path d="M23.5938 56.3438C23.4896 56.0312 23.4375 55.6562 23.4375 55.2188C23.4375 54.8438 23.5104 54.4896 23.6562 54.1562C24.0312 53.3438 24.6458 52.9375 25.5 52.9375C26.2917 52.9583 27.0521 53.4167 27.7812 54.3125C28.0104 54.6042 28.2292 54.875 28.4375 55.125C31.3542 58.7083 34.1458 60.5 36.8125 60.5C39.4375 60.5 41.6875 59.5521 43.5625 57.6562C45.3958 55.7812 46.3125 53.5521 46.3125 50.9688C46.2917 48.7396 45.7083 46.8438 44.5625 45.2812C43.6458 44.0104 42.0208 42.6979 39.6875 41.3438C37.2292 39.9062 35.7604 39.0208 35.2812 38.6875C34.1979 37.9375 33.2812 37.1667 32.5312 36.375C30.6354 34.375 29.6875 31.9062 29.6875 28.9688C29.6875 28.5938 29.7083 28.1979 29.75 27.7812C30.0417 24.6146 31.3438 21.9479 33.6562 19.7812C36.0312 17.5938 38.8229 16.5 42.0312 16.5C43.4062 16.5 44.75 16.7188 46.0625 17.1562C48.7917 18.0938 50.8958 19.7188 52.375 22.0312C52.625 22.6562 52.75 23.1146 52.75 23.4062C52.75 23.7812 52.6458 24.1562 52.4375 24.5312C51.9792 25.3021 51.3229 25.6875 50.4688 25.6875C49.7188 25.6875 49.1875 25.4896 48.875 25.0938C46.75 22.5312 44.4688 21.2396 42.0312 21.2188C40.1146 21.2188 38.4167 21.9167 36.9375 23.3125C35.2917 24.875 34.4688 26.7812 34.4688 29.0312C34.4688 30.4271 34.8958 31.6771 35.75 32.7812C36.5208 33.7812 38.0312 34.9583 40.2812 36.3125C42.7396 37.7708 44.5729 38.9896 45.7812 39.9688C49.6562 43.0938 51.5938 46.7604 51.5938 50.9688C51.5938 51.9062 51.5 52.8438 51.3125 53.7812C50.625 57.0938 48.9062 59.8542 46.1562 62.0625C43.3646 64.3125 40.25 65.4375 36.8125 65.4375C34.5833 65.4375 32.4271 64.8542 30.3438 63.6875C27.4688 62.0417 25.2188 59.5938 23.5938 56.3438Z" fill="white"/>
<line x1="78.5" y1="50.5" x2="78.5" y2="79.5" stroke="#33E1ED" stroke-width="5" stroke-linecap="round"/>
<line x1="49.5" y1="79.5" x2="78.5" y2="79.5" stroke="#33E1ED" stroke-width="5" stroke-linecap="round"/>
<line x1="2.5" y1="3.5" x2="2.5" y2="32.5" stroke="#33E1ED" stroke-width="5" stroke-linecap="round"/>
<line x1="2.5" y1="2.5" x2="31.5" y2="2.5" stroke="#33E1ED" stroke-width="5" stroke-linecap="round"/>
</svg>
