<svg width="290" height="93" viewBox="0 0 290 93" fill="none" xmlns="http://www.w3.org/2000/svg">
<path d="M23.5938 56.3438C23.4896 56.0312 23.4375 55.6562 23.4375 55.2188C23.4375 54.8438 23.5104 54.4896 23.6562 54.1562C24.0312 53.3438 24.6458 52.9375 25.5 52.9375C26.2917 52.9583 27.0521 53.4167 27.7812 54.3125C28.0104 54.6042 28.2292 54.875 28.4375 55.125C31.3542 58.7083 34.1458 60.5 36.8125 60.5C39.4375 60.5 41.6875 59.5521 43.5625 57.6562C45.3958 55.7812 46.3125 53.5521 46.3125 50.9688C46.2917 48.7396 45.7083 46.8438 44.5625 45.2812C43.6458 44.0104 42.0208 42.6979 39.6875 41.3438C37.2292 39.9062 35.7604 39.0208 35.2812 38.6875C34.1979 37.9375 33.2812 37.1667 32.5312 36.375C30.6354 34.375 29.6875 31.9062 29.6875 28.9688C29.6875 28.5938 29.7083 28.1979 29.75 27.7812C30.0417 24.6146 31.3438 21.9479 33.6562 19.7812C36.0312 17.5938 38.8229 16.5 42.0312 16.5C43.4062 16.5 44.75 16.7188 46.0625 17.1562C48.7917 18.0938 50.8958 19.7188 52.375 22.0312C52.625 22.6562 52.75 23.1146 52.75 23.4062C52.75 23.7812 52.6458 24.1562 52.4375 24.5312C51.9792 25.3021 51.3229 25.6875 50.4688 25.6875C49.7188 25.6875 49.1875 25.4896 48.875 25.0938C46.75 22.5312 44.4688 21.2396 42.0312 21.2188C40.1146 21.2188 38.4167 21.9167 36.9375 23.3125C35.2917 24.875 34.4688 26.7812 34.4688 29.0312C34.4688 30.4271 34.8958 31.6771 35.75 32.7812C36.5208 33.7812 38.0312 34.9583 40.2812 36.3125C42.7396 37.7708 44.5729 38.9896 45.7812 39.9688C49.6562 43.0938 51.5938 46.7604 51.5938 50.9688C51.5938 51.9062 51.5 52.8438 51.3125 53.7812C50.625 57.0938 48.9062 59.8542 46.1562 62.0625C43.3646 64.3125 40.25 65.4375 36.8125 65.4375C34.5833 65.4375 32.4271 64.8542 30.3438 63.6875C27.4688 62.0417 25.2188 59.5938 23.5938 56.3438ZM66.0625 38.75C66.7917 38.7708 67.4792 38.8438 68.125 38.9688C71.3333 39.6562 73.3021 42.1562 74.0312 46.4688C74.4271 46.2396 75.0833 45.8125 76 45.1875C77.25 44.3333 78.1979 43.9062 78.8438 43.9062C79.1562 43.9062 79.4583 44 79.75 44.1875C80.3958 44.6042 80.7188 45.1667 80.7188 45.875C80.6979 46.5833 80.2396 47.3646 79.3438 48.2188C78.0729 49.3854 76.4271 50.375 74.4062 51.1875C74.3854 54.4375 73.8958 57.1875 72.9375 59.4375C71.375 63.1042 68.8125 64.9375 65.25 64.9375C63.9792 64.9375 62.7083 64.5312 61.4375 63.7188C58.5 61.7812 57.0312 58.2917 57.0312 53.25C57.0312 50.2083 57.5417 47.4375 58.5625 44.9375C60.1667 41 62.6667 38.9375 66.0625 38.75ZM69.9688 52C69.1562 51.9792 68.3854 51.8958 67.6562 51.75C64.9062 51.1667 63.1354 49.7083 62.3438 47.375C61.8021 49.125 61.5312 51.0312 61.5312 53.0938C61.5312 54.0938 61.625 55.0625 61.8125 56C62.3958 58.8542 63.6667 60.2812 65.625 60.2812C66.2708 60.2812 66.8542 60.0833 67.375 59.6875C68.8958 58.5208 69.7604 55.9583 69.9688 52ZM69.5 47.75C69.5 47.75 69.6458 47.75 69.9375 47.75C69.625 44.8958 68.875 43.4583 67.6875 43.4375C67.5833 43.4375 67.4792 43.4479 67.375 43.4688C66.9167 43.6354 66.6875 43.9792 66.6875 44.5C66.6875 44.9583 66.7604 45.4062 66.9062 45.8438C67.3646 47.1146 68.2292 47.75 69.5 47.75ZM91.4062 48.0938C91.5729 46.8229 91.7812 44.4375 92.0312 40.9375C92.0521 40.7708 92.0729 40.6146 92.0938 40.4688C92.3438 39.1562 93.1458 38.4792 94.5 38.4375C94.5625 38.4375 94.6354 38.4479 94.7188 38.4688C95.8438 38.5938 96.4062 39.4688 96.4062 41.0938C96.4062 41.5104 96.3646 42.1354 96.2812 42.9688C96.2396 43.3438 96.2083 43.625 96.1875 43.8125C95.8333 49.4583 95.6562 53.0312 95.6562 54.5312C95.6562 55.0729 95.6875 55.6146 95.75 56.1562C96.0833 58.8021 97.0104 60.125 98.5312 60.125C98.7396 60.125 98.9583 60.1042 99.1875 60.0625C99.7917 59.9167 100.677 59.4271 101.844 58.5938C102.99 57.7604 103.906 57.3438 104.594 57.3438C104.865 57.3438 105.125 57.4271 105.375 57.5938C106.021 57.9896 106.344 58.6042 106.344 59.4375C106.344 59.5 106.333 59.5833 106.312 59.6875C106.167 60.6875 105.302 61.7188 103.719 62.7812C101.781 64.0938 99.8542 64.75 97.9375 64.75C95.3542 64.7292 93.5104 63.5521 92.4062 61.2188C90.5729 63.4688 88.0625 64.6042 84.875 64.625C84.125 64.625 83.4167 64.5312 82.75 64.3438C79.1042 63.2396 77.2812 59.2292 77.2812 52.3125C77.2812 48.9792 77.6458 45.625 78.375 42.25C78.4167 42.0833 78.4583 41.9062 78.5 41.7188C79.1458 39.4271 80.0625 38.2812 81.25 38.2812C82.7292 38.3021 83.4896 39.1146 83.5312 40.7188C83.5312 41.0521 83.4375 41.7917 83.25 42.9375C82.5208 47.6042 82.1562 50.9792 82.1562 53.0625C82.1562 57.3958 83.2604 59.5833 85.4688 59.625C88.3229 59.6042 90.3021 55.7604 91.4062 48.0938ZM101.219 61.75C101.219 61.75 102.104 55.0625 103.875 41.6875C103.917 41.3333 103.969 41 104.031 40.6875C104.406 38.8958 105.219 38 106.469 38C106.698 38 106.927 38.0208 107.156 38.0625C108.115 38.2917 108.594 39.1979 108.594 40.7812C108.594 41.0104 108.573 41.4062 108.531 41.9688C108.51 42.3438 108.5 42.6354 108.5 42.8438C108.542 42.7604 108.594 42.6771 108.656 42.5938C110.198 39.8646 112.396 38.5 115.25 38.5C116.271 38.5 117.208 38.8021 118.062 39.4062C119.333 40.3438 119.969 41.5833 119.969 43.125C119.969 43.375 119.958 43.9688 119.938 44.9062C119.917 47.0312 119.906 48.7188 119.906 49.9688C119.906 54.2188 120.031 56.7188 120.281 57.4688C120.344 57.6354 120.406 57.8125 120.469 58C121.052 59.5833 121.875 60.375 122.938 60.375C123.125 60.375 123.333 60.3542 123.562 60.3125C124.188 60.1875 125.083 59.6979 126.25 58.8438C127.396 58.0312 128.312 57.625 129 57.625C129.271 57.625 129.531 57.6979 129.781 57.8438C130.427 58.2188 130.75 58.8333 130.75 59.6875C130.625 60.7083 129.75 61.8333 128.125 63.0625C126.208 64.3542 124.281 65 122.344 65C120.781 65 119.458 64.5729 118.375 63.7188C116.146 61.9271 115.031 58 115.031 51.9375C115.031 51.5 115.042 50.7917 115.062 49.8125C115.104 48.7917 115.125 47.9375 115.125 47.25C115.125 45.0208 114.875 43.875 114.375 43.8125C114.292 43.8125 114.188 43.8333 114.062 43.875C112.875 44.3125 111.354 46.6771 109.5 50.9688C107.875 54.7396 106.833 57.875 106.375 60.375L106.312 61.2812C106.25 62.0312 106.042 62.7188 105.688 63.3438C105.083 64.3438 104.333 64.8438 103.438 64.8438C103.188 64.8438 102.938 64.7917 102.688 64.6875C101.708 64.2292 101.219 63.25 101.219 61.75ZM146.688 60.4062C147.75 60.3854 148.76 59.6875 149.719 58.3125C150.865 56.5625 152.052 53.2292 153.281 48.3125L155.375 40.3125C155.812 39.2083 156.583 38.6458 157.688 38.625C158.104 38.6458 158.521 38.6875 158.938 38.75C162.438 39.3125 165.281 41.0938 167.469 44.0938C169.51 46.9062 170.531 50.1146 170.531 53.7188C170.531 57.1146 169.573 60.0938 167.656 62.6562C167.635 62.6771 167.604 62.7083 167.562 62.75C166.75 63.7917 165.865 64.3125 164.906 64.3125C164.573 64.3125 164.25 64.1979 163.938 63.9688C163.271 63.4896 162.938 62.8438 162.938 62.0312C162.938 61.7604 162.99 61.4792 163.094 61.1875C163.094 61.1875 163.208 60.9688 163.438 60.5312C164.958 58.0729 165.729 55.6458 165.75 53.25C165.75 52.9792 165.74 52.6979 165.719 52.4062C165.51 49.7396 164.469 47.4583 162.594 45.5625C161.365 44.3125 160.25 43.6771 159.25 43.6562C159.021 44.5104 158.635 46.0833 158.094 48.375C156.969 53.0208 155.854 56.5833 154.75 59.0625C154.479 59.6875 154.156 60.2708 153.781 60.8125C151.885 63.6667 149.156 65.0938 145.594 65.0938C142.99 65.0729 141.031 63.7604 139.719 61.1562C139.49 61.4271 139.229 61.6979 138.938 61.9688C136.833 63.9896 134.698 65 132.531 65C131.219 65 130.083 64.6667 129.125 64C126.958 62.5 125.875 59.5 125.875 55C125.875 54.2917 125.927 53.5417 126.031 52.75C126.448 49.1875 127.562 46.0312 129.375 43.2812C131.583 39.8854 134.25 38.1875 137.375 38.1875C138.542 38.1875 139.583 38.3854 140.5 38.7812L143.031 20.75C143.115 20.2292 143.198 19.7917 143.281 19.4375C143.677 17.875 144.469 17.0938 145.656 17.0938C145.927 17.0938 146.188 17.125 146.438 17.1875C147.333 17.4375 147.781 18.3229 147.781 19.8438C147.781 20.4271 147.385 23.5312 146.594 29.1562C144.615 43.4479 143.625 52.3542 143.625 55.875C143.625 56.6875 143.75 57.4479 144 58.1562C144.542 59.6562 145.438 60.4062 146.688 60.4062ZM137 57.125C137.271 56.7292 137.604 55.6979 138 54.0312C138.833 50.4271 139.469 46.6354 139.906 42.6562C139.427 42.3854 138.938 42.25 138.438 42.25C138.042 42.25 137.646 42.3021 137.25 42.4062C135.333 42.9896 133.708 44.8021 132.375 47.8438C131.167 50.5729 130.562 53.2917 130.562 56C130.562 56.3958 130.583 56.7708 130.625 57.125C130.812 59.1458 131.448 60.1562 132.531 60.1562C133.135 60.1562 133.896 59.8333 134.812 59.1875C135.771 58.4792 136.5 57.7917 137 57.125ZM173.031 54.9062C173.031 54.1979 173.073 53.4479 173.156 52.6562C173.594 49.0938 174.719 45.9271 176.531 43.1562C178.76 39.7604 181.427 38.0625 184.531 38.0625C184.948 38.0625 185.396 38.0938 185.875 38.1562C188.083 38.4688 189.229 39.2708 189.312 40.5625C189.292 41.5625 188.406 42.0938 186.656 42.1562H185.594C185.198 42.1562 184.812 42.2083 184.438 42.3125C182.521 42.875 180.896 44.6146 179.562 47.5312C178.333 50.2188 177.719 52.9271 177.719 55.6562C177.719 57.0521 177.958 58.1042 178.438 58.8125C179 59.6042 180.125 60.0729 181.812 60.2188C182.542 60.2188 183.271 60.1354 184 59.9688C185.333 59.6771 186.906 58.9375 188.719 57.75C189.906 56.9792 190.74 56.5938 191.219 56.5938C191.51 56.5938 191.802 56.6875 192.094 56.875C192.74 57.2917 193.062 57.875 193.062 58.625C193.062 58.8542 193.01 59.1042 192.906 59.375C192.365 60.6042 190.844 61.8125 188.344 63C185.635 64.2708 183.135 64.9062 180.844 64.9062C175.677 64.8854 173.073 61.5521 173.031 54.9062ZM193.25 55.1875C193.25 54.4792 193.292 53.7292 193.375 52.9375C193.812 49.3542 194.938 46.1771 196.75 43.4062C198.958 40.0312 201.615 38.3438 204.719 38.3438C206.052 38.3438 207.219 38.6042 208.219 39.125C208.635 38.625 209.208 38.3646 209.938 38.3438C210.354 38.3438 210.615 38.375 210.719 38.4375C211.615 38.7292 212.062 39.6146 212.062 41.0938C212.062 41.6979 211.958 43 211.75 45C211.104 50.9167 210.781 54.5938 210.781 56.0312C210.781 56.9896 210.979 57.8854 211.375 58.7188C211.958 59.9688 212.729 60.5938 213.688 60.5938C213.875 60.5938 214.073 60.5729 214.281 60.5312C214.906 60.4062 215.802 59.9271 216.969 59.0938C218.115 58.2604 219.031 57.8438 219.719 57.8438C219.99 57.8438 220.271 57.9375 220.562 58.125C221.167 58.5417 221.469 59.0938 221.469 59.7812C221.406 60.8646 220.583 61.9896 219 63.1562C217.104 64.4896 215.094 65.1562 212.969 65.1562C210.344 65.1354 208.406 63.8125 207.156 61.1875C206.865 61.5417 206.531 61.8958 206.156 62.25C204.094 64.1875 202 65.1562 199.875 65.1562C198.542 65.1562 197.385 64.8125 196.406 64.125C194.302 62.5833 193.25 59.6042 193.25 55.1875ZM207 44.9062C207 44.9062 207.073 44.1979 207.219 42.7812C206.76 42.5521 206.281 42.4375 205.781 42.4375C205.406 42.4375 205.021 42.4896 204.625 42.5938C202.688 43.1354 201.052 44.9271 199.719 47.9688C198.531 50.6979 197.938 53.4375 197.938 56.1875C197.938 56.2917 197.938 56.3958 197.938 56.5C198 59.0417 198.646 60.3125 199.875 60.3125C200.521 60.2917 201.312 59.9375 202.25 59.25C203.208 58.5625 203.906 57.9167 204.344 57.3125C204.615 56.9167 204.979 55.7604 205.438 53.8438C206.271 50.2812 206.792 47.3021 207 44.9062ZM223.312 41.7188C223.333 41.5938 223.344 41.4688 223.344 41.3438C223.635 39.1562 224.49 38.0625 225.906 38.0625C226.135 38.0625 226.365 38.0833 226.594 38.125C227.552 38.3542 228.031 39.2604 228.031 40.8438C228.031 41.2396 227.979 41.9583 227.875 43C229.458 40.0417 231.719 38.5521 234.656 38.5312C235.677 38.5312 236.625 38.8438 237.5 39.4688C238.771 40.4062 239.406 41.6354 239.406 43.1562C239.406 43.4062 239.396 44.0104 239.375 44.9688C239.354 47.0729 239.344 48.7604 239.344 50.0312C239.344 54.2604 239.469 56.75 239.719 57.5C239.781 57.6875 239.844 57.8854 239.906 58.0938C240.51 59.6562 241.333 60.4375 242.375 60.4375C242.583 60.4375 242.802 60.4167 243.031 60.375C243.635 60.2292 244.521 59.7396 245.688 58.9062C246.833 58.0729 247.75 57.6562 248.438 57.6562C248.708 57.6562 248.969 57.7396 249.219 57.9062C249.865 58.3021 250.188 58.9167 250.188 59.75C250.188 59.8125 250.177 59.8958 250.156 60C250.01 61 249.146 62.0312 247.562 63.0938C245.625 64.4062 243.698 65.0625 241.781 65.0625C240.219 65.0625 238.896 64.6354 237.812 63.7812C235.583 61.9896 234.469 58.0625 234.469 52C234.469 51.6458 234.479 51.0729 234.5 50.2812C234.542 49.1354 234.562 48.1458 234.562 47.3125C234.542 45.1042 234.292 43.9479 233.812 43.8438C233.729 43.8438 233.625 43.8646 233.5 43.9062C232.312 44.3021 230.802 46.6458 228.969 50.9375C227.385 54.6667 226.365 57.8125 225.906 60.375L225.625 62.0312C225.5 62.7604 225.385 63.5104 225.281 64.2812C224.177 71.5104 223.438 77.5625 223.062 82.4375C223 83.1875 222.792 83.8646 222.438 84.4688C221.833 85.4896 221.073 86 220.156 86C219.698 86 219.281 85.8542 218.906 85.5625C218.219 85 217.875 84.1875 217.875 83.125C217.875 82.8333 219.688 69.0312 223.312 41.7188ZM246.781 55.4375C246.781 54.7292 246.823 53.9792 246.906 53.1875C247.344 49.625 248.469 46.4583 250.281 43.6875C252.49 40.2917 255.146 38.5938 258.25 38.5938C259.083 38.5938 259.885 38.6979 260.656 38.9062C263.406 39.6979 264.781 41.6354 264.781 44.7188C264.781 44.9479 264.771 45.1875 264.75 45.4375C264.542 48.2292 263.292 50.5729 261 52.4688C258.75 54.3438 256.135 55.2812 253.156 55.2812C252.594 55.2812 252.042 55.2292 251.5 55.125C251.458 55.4375 251.438 55.875 251.438 56.4375C251.438 57.6458 251.646 58.5833 252.062 59.25C252.625 60.1042 253.781 60.6042 255.531 60.75C256.302 60.75 257.062 60.6667 257.812 60.5C259.125 60.1875 260.677 59.4479 262.469 58.2812C263.635 57.5104 264.458 57.125 264.938 57.125C265.208 57.125 265.49 57.2083 265.781 57.375C266.448 57.7708 266.781 58.3438 266.781 59.0938C266.781 59.3438 266.729 59.6146 266.625 59.9062C266.062 61.2604 264.375 62.5417 261.562 63.75C258.958 64.875 256.667 65.4375 254.688 65.4375C253.938 65.4375 253.24 65.375 252.594 65.25C248.719 64.4583 246.781 61.1875 246.781 55.4375ZM256.812 43.5C254.917 44.7708 253.427 47.1875 252.344 50.75C252.865 50.875 253.365 50.9375 253.844 50.9375C255.573 50.9375 257.083 50.4062 258.375 49.3438C259.812 48.1771 260.531 46.7917 260.531 45.1875C260.531 43.5833 260.021 42.7708 259 42.75C258.271 42.7708 257.542 43.0208 256.812 43.5Z" fill="white"/>
<line x1="287.5" y1="61.5" x2="287.5" y2="90.5" stroke="#33E1ED" stroke-width="5" stroke-linecap="round"/>
<line x1="258.5" y1="90.5" x2="287.5" y2="90.5" stroke="#33E1ED" stroke-width="5" stroke-linecap="round"/>
<line x1="2.5" y1="3.5" x2="2.5" y2="32.5" stroke="#33E1ED" stroke-width="5" stroke-linecap="round"/>
<line x1="2.5" y1="2.5" x2="31.5" y2="2.5" stroke="#33E1ED" stroke-width="5" stroke-linecap="round"/>
</svg>
