<svg width="24" height="24" viewBox="0 0 24 24" fill="none" xmlns="http://www.w3.org/2000/svg">
<path d="M19.0701 19.07C22.9801 15.16 22.9801 8.82999 19.0701 4.92999M4.93006 4.92999C1.02006 8.83999 1.02006 15.17 4.93006 19.07M8.70006 21.41C9.77006 21.78 10.8801 21.96 12.0001 21.96C13.1201 21.95 14.2301 21.78 15.3001 21.41M8.70006 2.58999C9.77006 2.21999 10.8801 2.03999 12.0001 2.03999C13.1201 2.03999 14.2301 2.21999 15.3001 2.58999" stroke="#33E1ED" stroke-width="1.5" stroke-linecap="round" stroke-linejoin="round"/>
<path d="M8.73999 12V10.33C8.73999 8.25001 10.21 7.40001 12.01 8.44001L13.46 9.28001L14.91 10.12C16.71 11.16 16.71 12.86 14.91 13.9L13.46 14.74L12.01 15.58C10.21 16.62 8.73999 15.77 8.73999 13.69V12Z" stroke="#33E1ED" stroke-width="1.5" stroke-miterlimit="10" stroke-linecap="round" stroke-linejoin="round"/>
</svg>
